<?xml version="1.0" encoding="utf-8"?>
<!-- Generator: Adobe Illustrator 25.0.0, SVG Export Plug-In . SVG Version: 6.00 Build 0)  -->
<svg version="1.1" id="Layer_4" xmlns="http://www.w3.org/2000/svg" xmlns:xlink="http://www.w3.org/1999/xlink" x="0px" y="0px"
	 viewBox="0 0 431.1 477.6" style="enable-background:new 0 0 431.1 477.6;" xml:space="preserve">
<style type="text/css">
	.st0{fill:#FFFFFF;}
</style>
<g>
	<g>
		<g>
			<path class="st0" d="M213.9,469.5c-1.8,0-3.6-0.5-5.2-1.4L19,357.7c-3.2-1.9-5.2-5.3-5.2-9V129.4c0-3.7,2-7.2,5.2-9
				c3.2-1.9,7.2-1.9,10.4,0l189.4,109.9c3.2,1.9,5.2,5.3,5.2,9l0.3,219.8c0,3.7-2,7.2-5.2,9C217.5,469,215.7,469.5,213.9,469.5z
				 M34.7,342.7l168.8,98.2l-0.3-195.6L34.7,147.5V342.7z"/>
		</g>
		<g>
			<path class="st0" d="M308.8,414.3H119.1c-5.8,0-10.4-4.7-10.4-10.4V184.3c0-5.8,4.7-10.4,10.4-10.4h189.7
				c5.8,0,10.4,4.7,10.4,10.4v219.5C319.2,409.6,314.5,414.3,308.8,414.3z M129.5,393.5h168.9V194.8H129.5V393.5z"/>
		</g>
		<g>
			<path class="st0" d="M213.9,469.5c-1.8,0-3.6-0.5-5.2-1.4c-3.2-1.9-5.2-5.3-5.2-9l-0.3-219.8c0-3.7,2-7.2,5.2-9l190-109.9
				c3.2-1.9,7.2-1.9,10.4,0c3.2,1.9,5.2,5.3,5.2,9v219.3c0,3.7-2,7.1-5.2,9L219.2,468.1C217.6,469,215.8,469.5,213.9,469.5z
				 M224.1,245.3l0.3,195.7l168.9-98.3V147.5L224.1,245.3z M403.6,348.7L403.6,348.7L403.6,348.7z"/>
		</g>
		<g>
			<path class="st0" d="M213.9,371.5c-1,0-1.9-0.1-2.8-0.4c-2.7-0.8-5-2.6-6.3-5.1l-94.8-176.8c-2.7-5-0.9-11.1,4-14L301.4,67.2
				c2.4-1.4,7.9-1.2,10.6-0.4c2.7,0.8,9,6.6,10.4,9.1l90.5,169.8c2.6,4.9,0.9,11.1-4,13.9L219.2,370.1
				C217.6,371,215.8,371.5,213.9,371.5z M133.1,188.3l85,158.3l171.7-99.9L305.6,88.9L133.1,188.3z"/>
		</g>
		<g>
			<path class="st0" d="M213.6,249.7c-1.8,0-3.6-0.5-5.2-1.4L19,138.4c-3.2-1.9-5.2-5.3-5.2-9c0-3.7,2-7.1,5.2-9L208.7,10.5
				c3.2-1.9,7.2-1.9,10.4,0l189.7,109.9c3.2,1.9,5.2,5.3,5.2,9c0,3.7-2,7.2-5.2,9l-190,109.9C217.2,249.2,215.4,249.7,213.6,249.7z
				 M45,129.4l168.6,97.8l169.2-97.9L213.9,31.6L45,129.4z"/>
		</g>
		<g>
			<line class="st0" x1="404" y1="129.4" x2="213.6" y2="239.3"/>
		</g>
	</g>
</g>
</svg>
